<svg width="28" height="29" viewBox="0 0 28 29" fill="none" xmlns="http://www.w3.org/2000/svg">
<path d="M14 2.43329C11.6926 2.43329 9.43697 3.11753 7.51839 4.39948C5.59982 5.68143 4.10447 7.50351 3.22145 9.63531C2.33843 11.7671 2.10739 14.1129 2.55755 16.376C3.00771 18.6391 4.11885 20.7179 5.75047 22.3495C7.38208 23.9811 9.46088 25.0923 11.724 25.5425C13.9871 25.9926 16.3329 25.7616 18.4647 24.8786C20.5965 23.9955 22.4186 22.5002 23.7005 20.5816C24.9825 18.663 25.6667 16.4074 25.6667 14.1C24.8559 14.3496 23.9923 14.3735 23.169 14.1691C22.3456 13.9647 21.5935 13.5397 20.9936 12.9398C20.3937 12.3399 19.9687 11.5878 19.7642 10.7644C19.5598 9.94099 19.5837 9.07744 19.8334 8.26662C19.0226 8.51629 18.159 8.54019 17.3356 8.33577C16.5122 8.13135 15.7601 7.70633 15.1602 7.10643C14.5603 6.50653 14.1353 5.75444 13.9309 4.93105C13.7265 4.10765 13.7504 3.24411 14 2.43329Z" stroke="#57B4BA" stroke-width="2.33333" stroke-linecap="round" stroke-linejoin="round"/>
<path d="M9.91663 10.0167V10.0283" stroke="#57B4BA" stroke-width="2.33333" stroke-linecap="round" stroke-linejoin="round"/>
<path d="M18.6666 18.1833V18.195" stroke="#57B4BA" stroke-width="2.33333" stroke-linecap="round" stroke-linejoin="round"/>
<path d="M14 14.1V14.1116" stroke="#57B4BA" stroke-width="2.33333" stroke-linecap="round" stroke-linejoin="round"/>
<path d="M12.8334 19.9333V19.945" stroke="#57B4BA" stroke-width="2.33333" stroke-linecap="round" stroke-linejoin="round"/>
<path d="M8.16663 16.4333V16.445" stroke="#57B4BA" stroke-width="2.33333" stroke-linecap="round" stroke-linejoin="round"/>
</svg>
