<svg width="19" height="18" viewBox="0 0 19 18" fill="none" xmlns="http://www.w3.org/2000/svg">
<path d="M12.5665 15.3125V13.8542C12.5665 13.0806 12.2592 12.3388 11.7122 11.7918C11.1652 11.2448 10.4234 10.9375 9.64982 10.9375H5.27482C4.50127 10.9375 3.75941 11.2448 3.21243 11.7918C2.66545 12.3388 2.35815 13.0806 2.35815 13.8542V15.3125" stroke="#57B4BA" stroke-width="1.45833" stroke-linecap="round" stroke-linejoin="round"/>
<path d="M12.5667 2.28082C13.1921 2.44297 13.746 2.8082 14.1414 3.3192C14.5368 3.8302 14.7514 4.45803 14.7514 5.10416C14.7514 5.75028 14.5368 6.37811 14.1414 6.88911C13.746 7.40011 13.1921 7.76534 12.5667 7.92749" stroke="#57B4BA" stroke-width="1.45833" stroke-linecap="round" stroke-linejoin="round"/>
<path d="M16.9417 15.3125V13.8542C16.9412 13.2079 16.7261 12.5801 16.3301 12.0694C15.9342 11.5586 15.3799 11.1938 14.7542 11.0323" stroke="#57B4BA" stroke-width="1.45833" stroke-linecap="round" stroke-linejoin="round"/>
<path d="M7.46232 8.02083C9.07315 8.02083 10.379 6.715 10.379 5.10417C10.379 3.49334 9.07315 2.1875 7.46232 2.1875C5.85149 2.1875 4.54565 3.49334 4.54565 5.10417C4.54565 6.715 5.85149 8.02083 7.46232 8.02083Z" stroke="#57B4BA" stroke-width="1.45833" stroke-linecap="round" stroke-linejoin="round"/>
</svg>
