<svg width="15" height="15" viewBox="0 0 15 15" fill="none" xmlns="http://www.w3.org/2000/svg">
<path d="M8.46865 9.75471C8.58912 9.81004 8.72485 9.82268 8.85347 9.79055C8.98209 9.75843 9.09593 9.68344 9.17623 9.57796L9.38332 9.30671C9.49199 9.16182 9.6329 9.04421 9.7949 8.96322C9.9569 8.88222 10.1355 8.84005 10.3167 8.84005H12.0667C12.3761 8.84005 12.6728 8.96296 12.8916 9.18176C13.1104 9.40055 13.2333 9.69729 13.2333 10.0067V11.7567C13.2333 12.0661 13.1104 12.3629 12.8916 12.5817C12.6728 12.8005 12.3761 12.9234 12.0667 12.9234C9.28188 12.9234 6.61116 11.8171 4.64203 9.848C2.6729 7.87887 1.56665 5.20815 1.56665 2.42338C1.56665 2.11396 1.68957 1.81721 1.90836 1.59842C2.12715 1.37963 2.4239 1.25671 2.73332 1.25671H4.48332C4.79274 1.25671 5.08948 1.37963 5.30827 1.59842C5.52707 1.81721 5.64998 2.11396 5.64998 2.42338V4.17338C5.64998 4.3545 5.60781 4.53313 5.52682 4.69513C5.44582 4.85713 5.32821 4.99804 5.18332 5.10671L4.91032 5.31146C4.80323 5.39323 4.72775 5.50956 4.69669 5.64067C4.66564 5.77178 4.68094 5.9096 4.73998 6.03071C5.53721 7.64997 6.8484 8.95951 8.46865 9.75471Z" stroke="#4A7C7F" stroke-width="1.16667" stroke-linecap="round" stroke-linejoin="round"/>
</svg>
