<svg width="15" height="15" viewBox="0 0 15 15" fill="none" xmlns="http://www.w3.org/2000/svg">
<path d="M7.55917 0.801706C8.32333 0.790039 9.08167 0.795872 9.84 0.790039C9.88667 1.68254 10.2075 2.59254 10.8608 3.22254C11.5142 3.87004 12.4358 4.16754 13.3342 4.26671V6.61754C12.4942 6.58837 11.6483 6.41337 10.8842 6.05171C10.5517 5.90004 10.2425 5.70754 9.93917 5.50921C9.93334 7.21254 9.945 8.91587 9.9275 10.6134C9.88083 11.43 9.6125 12.2409 9.14 12.9117C8.37583 14.0317 7.05167 14.7609 5.6925 14.7842C4.85834 14.8309 4.02417 14.6034 3.3125 14.1834C2.13417 13.4892 1.30584 12.2175 1.18334 10.8525C1.17167 10.5609 1.16584 10.2692 1.1775 9.98337C1.2825 8.87504 1.83084 7.81337 2.6825 7.09004C3.65084 6.25004 5.00417 5.84754 6.27 6.08671C6.28167 6.95004 6.24667 7.81337 6.24667 8.67671C5.66917 8.49004 4.9925 8.54254 4.485 8.89254C4.1175 9.13171 3.8375 9.49921 3.69167 9.91337C3.56917 10.2109 3.60417 10.5375 3.61 10.8525C3.75 11.8092 4.67167 12.6142 5.65167 12.5267C6.305 12.5209 6.92917 12.1417 7.2675 11.5875C7.37833 11.395 7.50083 11.1967 7.50667 10.9692C7.565 9.92504 7.54167 8.88671 7.5475 7.84254C7.55333 5.49171 7.54167 3.14671 7.55917 0.801706Z" fill="#015551"/>
</svg>
