<svg width="15" height="15" viewBox="0 0 15 15" fill="none" xmlns="http://www.w3.org/2000/svg">
<path d="M5.99145 2.66265C6.02359 2.32452 6.18064 2.01051 6.43192 1.78198C6.68321 1.55345 7.01066 1.42682 7.35032 1.42682C7.68998 1.42682 8.01744 1.55345 8.26872 1.78198C8.52 2.01051 8.67706 2.32452 8.7092 2.66265C8.72852 2.88109 8.80017 3.09165 8.91811 3.27652C9.03604 3.46139 9.19678 3.61513 9.38672 3.72471C9.57665 3.8343 9.7902 3.89652 10.0093 3.9061C10.2283 3.91568 10.4465 3.87233 10.6453 3.77974C10.9539 3.63961 11.3037 3.61933 11.6264 3.72285C11.9492 3.82638 12.2219 4.04629 12.3915 4.3398C12.5611 4.6333 12.6154 4.9794 12.5438 5.31074C12.4723 5.64207 12.28 5.93493 12.0044 6.13232C11.825 6.25823 11.6785 6.42551 11.5774 6.62C11.4763 6.81449 11.4235 7.03048 11.4235 7.2497C11.4235 7.46891 11.4763 7.6849 11.5774 7.87939C11.6785 8.07388 11.825 8.24116 12.0044 8.36707C12.28 8.56446 12.4723 8.85732 12.5438 9.18865C12.6154 9.51999 12.5611 9.86609 12.3915 10.1596C12.2219 10.4531 11.9492 10.673 11.6264 10.7765C11.3037 10.8801 10.9539 10.8598 10.6453 10.7197C10.4465 10.6271 10.2283 10.5837 10.0093 10.5933C9.7902 10.6029 9.57665 10.6651 9.38672 10.7747C9.19678 10.8843 9.03604 11.038 8.91811 11.2229C8.80017 11.4077 8.72852 11.6183 8.7092 11.8367C8.67706 12.1749 8.52 12.4889 8.26872 12.7174C8.01744 12.9459 7.68998 13.0726 7.35032 13.0726C7.01066 13.0726 6.68321 12.9459 6.43192 12.7174C6.18064 12.4889 6.02359 12.1749 5.99145 11.8367C5.97216 11.6182 5.9005 11.4076 5.78254 11.2226C5.66457 11.0377 5.50377 10.8839 5.31375 10.7743C5.12374 10.6647 4.9101 10.6025 4.69095 10.593C4.4718 10.5835 4.25358 10.6269 4.05478 10.7197C3.74613 10.8598 3.39639 10.8801 3.07361 10.7765C2.75084 10.673 2.47813 10.4531 2.30856 10.1596C2.13899 9.86609 2.0847 9.51999 2.15624 9.18865C2.22778 8.85732 2.42005 8.56446 2.69561 8.36707C2.87506 8.24116 3.02154 8.07388 3.12267 7.87939C3.22379 7.6849 3.27659 7.46891 3.27659 7.2497C3.27659 7.03048 3.22379 6.81449 3.12267 6.62C3.02154 6.42551 2.87506 6.25823 2.69561 6.13232C2.42044 5.93483 2.22851 5.64208 2.15714 5.31098C2.08577 4.97987 2.14005 4.63405 2.30944 4.34074C2.47882 4.04742 2.75121 3.82756 3.07367 3.72388C3.39612 3.6202 3.7456 3.64011 4.0542 3.77974C4.25297 3.87233 4.47113 3.91568 4.69021 3.9061C4.90928 3.89652 5.12282 3.8343 5.31276 3.72471C5.5027 3.61513 5.66343 3.46139 5.78137 3.27652C5.8993 3.09165 5.97096 2.88109 5.99028 2.66265" stroke="#015551" stroke-width="1.16667" stroke-linecap="round" stroke-linejoin="round"/>
<path d="M7.34998 9C8.31647 9 9.09998 8.2165 9.09998 7.25C9.09998 6.2835 8.31647 5.5 7.34998 5.5C6.38348 5.5 5.59998 6.2835 5.59998 7.25C5.59998 8.2165 6.38348 9 7.34998 9Z" stroke="#015551" stroke-width="1.16667" stroke-linecap="round" stroke-linejoin="round"/>
</svg>
