<svg width="15" height="15" viewBox="0 0 15 15" fill="none" xmlns="http://www.w3.org/2000/svg">
<path d="M11.1483 6.8667H2.98161C2.33728 6.8667 1.81494 7.38903 1.81494 8.03337V12.1167C1.81494 12.761 2.33728 13.2834 2.98161 13.2834H11.1483C11.7926 13.2834 12.3149 12.761 12.3149 12.1167V8.03337C12.3149 7.38903 11.7926 6.8667 11.1483 6.8667Z" stroke="#FDFBEE" stroke-width="1.16667" stroke-linecap="round" stroke-linejoin="round"/>
<path d="M4.14844 6.8667V4.53337C4.14844 3.75982 4.45573 3.01795 5.00271 2.47097C5.54969 1.92399 6.29156 1.6167 7.0651 1.6167C7.83865 1.6167 8.58052 1.92399 9.1275 2.47097C9.67448 3.01795 9.98177 3.75982 9.98177 4.53337V6.8667" stroke="#FDFBEE" stroke-width="1.16667" stroke-linecap="round" stroke-linejoin="round"/>
</svg>
