<svg width="15" height="14" viewBox="0 0 15 14" fill="none" xmlns="http://www.w3.org/2000/svg">
<path d="M5.41665 12.8333C5.73881 12.8333 5.99998 12.5722 5.99998 12.25C5.99998 11.9278 5.73881 11.6667 5.41665 11.6667C5.09448 11.6667 4.83331 11.9278 4.83331 12.25C4.83331 12.5722 5.09448 12.8333 5.41665 12.8333Z" stroke="#015551" stroke-width="1.16667" stroke-linecap="round" stroke-linejoin="round"/>
<path d="M11.8333 12.8333C12.1555 12.8333 12.4167 12.5722 12.4167 12.25C12.4167 11.9278 12.1555 11.6667 11.8333 11.6667C11.5112 11.6667 11.25 11.9278 11.25 12.25C11.25 12.5722 11.5112 12.8333 11.8333 12.8333Z" stroke="#015551" stroke-width="1.16667" stroke-linecap="round" stroke-linejoin="round"/>
<path d="M1.94586 1.19583H3.11253L4.66419 8.44083C4.72112 8.70617 4.86875 8.94336 5.08169 9.11158C5.29463 9.2798 5.55956 9.36853 5.83086 9.3625H11.5359C11.8014 9.36207 12.0588 9.27108 12.2656 9.10457C12.4724 8.93805 12.6163 8.70597 12.6734 8.44666L13.6359 4.1125H3.7367" stroke="#015551" stroke-width="1.16667" stroke-linecap="round" stroke-linejoin="round"/>
</svg>
