<svg width="15" height="15" viewBox="0 0 15 15" fill="none" xmlns="http://www.w3.org/2000/svg">
<path d="M10.1667 1.95654H4.33332C2.72249 1.95654 1.41666 3.26238 1.41666 4.87321V10.7065C1.41666 12.3174 2.72249 13.6232 4.33332 13.6232H10.1667C11.7775 13.6232 13.0833 12.3174 13.0833 10.7065V4.87321C13.0833 3.26238 11.7775 1.95654 10.1667 1.95654Z" stroke="#015551" stroke-width="1.16667" stroke-linecap="round" stroke-linejoin="round"/>
<path d="M9.58333 7.42271C9.65532 7.90819 9.57239 8.40401 9.34635 8.83964C9.12031 9.27527 8.76266 9.62854 8.32427 9.84919C7.88589 10.0698 7.38909 10.1466 6.90453 10.0687C6.41998 9.9907 5.97235 9.76193 5.62531 9.41489C5.27828 9.06785 5.0495 8.62022 4.97153 8.13567C4.89356 7.65112 4.97036 7.15432 5.19102 6.71593C5.41167 6.27755 5.76493 5.9199 6.20057 5.69386C6.6362 5.46781 7.13202 5.38489 7.61749 5.45688C8.1127 5.53031 8.57115 5.76107 8.92515 6.11506C9.27914 6.46905 9.50989 6.92751 9.58333 7.42271Z" stroke="#015551" stroke-width="1.16667" stroke-linecap="round" stroke-linejoin="round"/>
<path d="M10.4583 4.58154H10.4642" stroke="#015551" stroke-width="1.16667" stroke-linecap="round" stroke-linejoin="round"/>
</svg>
