<svg width="12" height="15" viewBox="0 0 12 15" fill="none" xmlns="http://www.w3.org/2000/svg">
<path d="M9.8864 7.47829C9.8864 9.81996 8.24723 10.9908 6.29897 11.6699C6.19695 11.7044 6.08613 11.7028 5.98518 11.6652C4.03223 10.9908 2.39307 9.81996 2.39307 7.47829V4.19996C2.39307 4.07575 2.44241 3.95663 2.53024 3.8688C2.61807 3.78097 2.73719 3.73163 2.8614 3.73163C3.79807 3.73163 4.9689 3.16963 5.7838 2.45776C5.88302 2.37299 6.00923 2.32642 6.13973 2.32642C6.27023 2.32642 6.39645 2.37299 6.49567 2.45776C7.31525 3.17431 8.4814 3.73163 9.41807 3.73163C9.54228 3.73163 9.6614 3.78097 9.74923 3.8688C9.83706 3.95663 9.8864 4.07575 9.8864 4.19996V7.47829Z" stroke="#00C950" stroke-width="0.936667" stroke-linecap="round" stroke-linejoin="round"/>
</svg>
