<svg width="18" height="18" viewBox="0 0 18 18" fill="none" xmlns="http://www.w3.org/2000/svg">
<path d="M14.9833 7.79165C14.9833 11.4324 10.9445 15.224 9.58821 16.3951C9.46187 16.4901 9.30807 16.5415 9.14998 16.5415C8.9919 16.5415 8.8381 16.4901 8.71175 16.3951C7.3555 15.224 3.31665 11.4324 3.31665 7.79165C3.31665 6.24455 3.93123 4.76082 5.02519 3.66686C6.11916 2.57289 7.60289 1.95831 9.14998 1.95831C10.6971 1.95831 12.1808 2.57289 13.2748 3.66686C14.3687 4.76082 14.9833 6.24455 14.9833 7.79165Z" stroke="#57B4BA" stroke-width="1.45833" stroke-linecap="round" stroke-linejoin="round"/>
<path d="M9.1499 9.97919C10.358 9.97919 11.3374 8.99981 11.3374 7.79169C11.3374 6.58356 10.358 5.60419 9.1499 5.60419C7.94178 5.60419 6.9624 6.58356 6.9624 7.79169C6.9624 8.99981 7.94178 9.97919 9.1499 9.97919Z" stroke="#57B4BA" stroke-width="1.45833" stroke-linecap="round" stroke-linejoin="round"/>
</svg>
